<svg id="Capa_1" enable-background="new 0 0 512 512" height="512" viewBox="0 0 512 512" width="512" xmlns="http://www.w3.org/2000/svg"><g><path d="m512 256c0 116.721-78.114 215.197-184.918 246.002-6.129 1.768-12.353-10.01-18.661-8.697-16.921 3.521-34.455 5.372-52.421 5.372-7.79 0-15.499 12.974-23.112 12.293-130.555-11.682-232.888-121.375-232.888-254.97 0-141.385 114.615-256 256-256s256 114.615 256 256z" fill="#453d83"/><path d="m426.501 241.345c0 104.847-84.995 189.841-189.841 189.841s-189.842-84.994-189.842-189.841 84.995-189.841 189.841-189.841 189.842 84.995 189.842 189.841z" fill="#51489a"/><path d="m470 332.5c0 8.284-8.954 15-20 15s-20-6.716-20-15 8.954-15 20-15c1.727 0 3.402.164 5 .473v-52.973c0-4.142 3.358-7.5 7.5-7.5s7.5 3.358 7.5 7.5z" fill="#8078bf"/><path d="m285 48.428v11.68c0 1.786-1.184 3.355-2.901 3.846l-52.099 14.885v53.661c0 1.126-.249 2.194-.693 3.153-2.641 8.231-12.522 14.347-24.307 14.347-13.807 0-25-8.395-25-18.75s11.193-18.75 25-18.75c3.556 0 6.938.557 10 1.56v-36.56c0-.173.006-.345.018-.515.356-8.349 6.018-15.584 14.114-17.897l50.77-14.505c2.554-.731 5.098 1.188 5.098 3.845z" fill="#3493f8"/><path d="m285 48.428v76.572c0 8.284-8.954 15-20 15s-20-6.716-20-15 8.954-15 20-15c1.727 0 3.402.164 5 .473v-43.062l-12.743 3.641c-6.143 1.755-12.257-2.858-12.257-9.246 0-4.293 2.846-8.066 6.974-9.245l27.927-7.979c2.555-.73 5.099 1.189 5.099 3.846z" fill="#76b6fa"/><path d="m265.495 335.382c-12.779 10.545-31.688 8.734-42.233-4.045l-216.4-262.242c-10.545-12.779-8.734-31.688 4.045-42.233 12.779-10.545 31.688-8.734 42.233 4.045l216.4 262.242c10.545 12.779 8.734 31.688-4.045 42.233z" fill="#ff2ea6"/><path d="m182.754 235.113c-12.779 10.545-31.688 8.734-42.233-4.045l-133.659-161.973c-10.545-12.779-8.734-31.688 4.045-42.233 12.779-10.545 31.688-8.734 42.233 4.045l133.659 161.973c10.545 12.779 8.734 31.688-4.045 42.233z" fill="#ff50b5"/><path d="m252.766 319.956c-3.195 2.636-7.922 2.184-10.558-1.011l-219.583-266.099c-2.636-3.195-2.184-7.922 1.011-10.558 3.195-2.636 7.922-2.184 10.558 1.011l219.582 266.099c2.637 3.195 2.184 7.922-1.01 10.558z" fill="#ffaee0"/><path d="m189.119 242.826c-3.195 2.636-7.922 2.184-10.558-1.011l-92.289-111.839c-2.636-3.195-2.184-7.922 1.011-10.558 3.195-2.636 7.922-2.184 10.558 1.011l92.288 111.839c2.637 3.195 2.184 7.922-1.01 10.558z" fill="#fff5f5"/><path d="m347.112 434.515-2.77 2.286c-17.039 14.061-42.25 11.646-56.311-5.393l-87.599-106.156 64.474-53.204 87.599 106.156c14.061 17.039 11.646 42.25-5.393 56.311z" fill="#3493f8"/><path d="m320.322 375.339-1.593 1.315c-9.797 8.085-24.294 6.696-32.379-3.101l-58.516-70.912 37.073-30.592 58.516 70.912c8.084 9.797 6.696 24.293-3.101 32.378z" fill="#76b6fa"/><path d="m280.304 286.436-68.668 56.664c-5.964 4.921-14.788 4.076-19.709-1.888l-.8-.97c-4.921-5.964-4.076-14.788 1.888-19.709l68.668-56.664c5.964-4.921 14.788-4.076 19.709 1.888l.8.97c4.921 5.964 4.076 14.788-1.888 19.709z" fill="#a7d0fc"/><path d="m280.304 286.436-42.297 34.903c-5.964 4.921-14.788 4.076-19.709-1.888l-.8-.97c-4.921-5.964-4.076-14.788 1.888-19.709l42.297-34.903c5.964-4.921 14.788-4.076 19.709 1.888l.8.97c4.921 5.964 4.076 14.788-1.888 19.709z" fill="#c8e2fd"/><path d="m130 337.5v55c0 1.126-.249 2.194-.693 3.153-2.641 8.231-12.522 14.347-24.307 14.347-13.807 0-25-8.395-25-18.75s11.193-18.75 25-18.75c3.556 0 6.938.557 10 1.56v-36.56c0-4.142 3.358-7.5 7.5-7.5s7.5 3.358 7.5 7.5z" fill="#ff9f22"/><path d="m165 315.468c0 7.915-5.247 14.871-12.857 17.045l-22.143 6.326v36.161c0 4.142-3.358 7.5-7.5 7.5s-7.5-3.358-7.5-7.5v-37.5c0-.173.006-.345.018-.515.356-8.349 6.018-15.584 14.114-17.897l29.495-8.427c3.193-.913 6.373 1.485 6.373 4.807z" fill="#ffc14f"/><path d="m352.615 94.929 8.267 15.115c.184.336.459.611.795.795l15.115 8.267c1.387.759 1.387 2.751 0 3.509l-15.115 8.267c-.336.184-.611.459-.795.795l-8.267 15.115c-.759 1.387-2.751 1.387-3.509 0l-8.267-15.115c-.184-.336-.459-.611-.795-.795l-15.115-8.267c-1.387-.759-1.387-2.751 0-3.509l15.115-8.267c.336-.184.611-.459.795-.795l8.267-15.115c.758-1.387 2.751-1.387 3.509 0zm-276.663 175.352-8.65 4.731c-1.387.759-1.387 2.751 0 3.509l8.65 4.731c.336.184.611.459.795.795l4.731 8.65c.759 1.387 2.751 1.387 3.509 0l4.731-8.65c.184-.336.459-.612.795-.795l8.65-4.731c1.387-.759 1.387-2.751 0-3.509l-8.65-4.731c-.336-.184-.611-.459-.795-.795l-4.731-8.65c-.759-1.387-2.751-1.387-3.509 0l-4.731 8.65c-.183.336-.459.612-.795.795z" fill="#fff5f5"/><path d="m317.991 413.827c-15.307-6.341-22.576-23.89-16.236-39.197l130.112-314.119c6.34-15.307 23.89-22.576 39.197-16.236 15.307 6.34 22.576 23.89 16.236 39.197l-130.112 314.119c-6.341 15.308-23.89 22.577-39.197 16.236z" fill="#ff9f22"/><path d="m367.74 293.723c-15.307-6.341-22.576-23.89-16.236-39.197l80.364-194.015c6.34-15.307 23.89-22.576 39.197-16.236 15.307 6.34 22.576 23.89 16.236 39.197l-80.364 194.015c-6.341 15.307-23.89 22.576-39.197 16.236z" fill="#ffc14f"/><path d="m325.644 395.35c-3.827-1.585-5.644-5.972-4.059-9.799l132.026-318.739c1.585-3.827 5.972-5.644 9.799-4.059 3.827 1.585 5.644 5.972 4.059 9.799l-132.025 318.739c-1.585 3.826-5.973 5.644-9.8 4.059z" fill="#ffe1aa"/><path d="m363.913 302.962c-3.827-1.585-5.644-5.972-4.059-9.799l55.489-133.963c1.585-3.827 5.972-5.644 9.799-4.059 3.827 1.585 5.644 5.972 4.059 9.799l-55.489 133.963c-1.585 3.826-5.972 5.644-9.799 4.059z" fill="#fff5f5"/><path d="m296.81 356.651 77.229 31.989-46.956 113.362c-22.569 6.51-46.419 9.998-71.083 9.998-7.79 0-15.499-.348-23.112-1.029z" fill="#ff2ea6"/><path d="m308.804 486.028-1.908-.79c-11.736-4.861-17.309-18.315-12.447-30.051l35.183-84.94 44.407 18.394-35.183 84.94c-4.862 11.735-18.316 17.308-30.052 12.447z" fill="#ff50b5"/><path d="m368.553 408.987-82.252-34.07c-7.143-2.959-10.536-11.148-7.577-18.292l.481-1.161c2.959-7.143 11.148-10.536 18.292-7.577l82.252 34.07c7.143 2.959 10.536 11.148 7.577 18.292l-.481 1.161c-2.959 7.144-11.149 10.536-18.292 7.577z" fill="#ffc7e7"/><path d="m368.553 408.987-50.102-20.753c-7.143-2.959-10.536-11.148-7.577-18.292l.481-1.161c2.959-7.143 11.148-10.536 18.292-7.577l50.102 20.753c7.143 2.959 10.536 11.148 7.577 18.292l-.481 1.161c-2.959 7.144-11.149 10.536-18.292 7.577z" fill="#fff5f5"/></g></svg>